<svg id="envelope-at-fill" xmlns="http://www.w3.org/2000/svg" width="30.253" height="26.472" viewBox="0 0 30.253 26.472">
  <path id="Trazado_53" data-name="Trazado 53" d="M3.782,2A3.782,3.782,0,0,0,.094,4.94l15.032,9.187L30.159,4.94A3.782,3.782,0,0,0,26.472,2ZM0,20.53V7.1l10.973,6.7Zm12.784-5.616L.361,22.527A3.782,3.782,0,0,0,3.782,24.69H15.611a8.52,8.52,0,0,1,2.553-9.352l-.694-.425-2.343,1.431ZM30.253,16.5V7.1L19.281,13.8l.639.393A8.514,8.514,0,0,1,30.253,16.5" transform="translate(0 -2)" fill="#fff"/>
  <path id="Trazado_54" data-name="Trazado 54" d="M21.922,15.134c0,2.208-1.091,3.829-3,3.829A2.086,2.086,0,0,1,16.8,17.738h-.081A1.871,1.871,0,0,1,14.8,18.953c-1.456,0-2.381-1.025-2.381-2.711v-1A2.358,2.358,0,0,1,14.8,12.594a1.72,1.72,0,0,1,1.8,1.191h.057V12.712h1.711v4.141a.738.738,0,0,0,.777.794c.6,0,1.208-.785,1.208-2.628V14.8a4.38,4.38,0,0,0-4.7-4.4h-.076A4.773,4.773,0,0,0,10.6,15.548v.3c0,3.53,2.339,5.018,4.859,5.018h.085a5.972,5.972,0,0,0,2.231-.34V21.9a6.252,6.252,0,0,1-2.339.331h-.083C11.719,22.236,9,20,9,15.894v-.4A6.193,6.193,0,0,1,15.59,9h.066c4.009,0,6.266,2.7,6.266,5.737Zm-7.639.4v.429c0,1.108.429,1.513,1.1,1.513.586,0,1.066-.321,1.066-1.4v-.694c0-.976-.52-1.339-1.082-1.339-.654,0-1.083.463-1.083,1.5" transform="translate(8.018 4.236)" fill="#fff"/>
</svg>
