<svg xmlns="http://www.w3.org/2000/svg" width="42.997" height="42.997" viewBox="0 0 42.997 42.997">
  <path id="instagram" d="M21.5,0c-5.834,0-6.568.027-8.86.129a15.841,15.841,0,0,0-5.221,1,10.48,10.48,0,0,0-3.808,2.48,10.48,10.48,0,0,0-2.48,3.808,15.747,15.747,0,0,0-1,5.213C.027,14.928,0,15.659,0,21.5s.027,6.568.129,8.86a15.838,15.838,0,0,0,1,5.219,11.006,11.006,0,0,0,6.286,6.288,15.783,15.783,0,0,0,5.219,1c2.295.1,3.026.129,8.865.129s6.568-.027,8.863-.129a15.87,15.87,0,0,0,5.221-1,11.006,11.006,0,0,0,6.286-6.288,15.907,15.907,0,0,0,1-5.219c.1-2.292.129-3.023.129-8.863s-.027-6.57-.129-8.865a15.889,15.889,0,0,0-1-5.216,10.48,10.48,0,0,0-2.48-3.808,10.48,10.48,0,0,0-3.808-2.48,15.815,15.815,0,0,0-5.221-1C28.063.027,27.335,0,21.493,0ZM19.572,3.875H21.5c5.74,0,6.42.019,8.685.124a11.914,11.914,0,0,1,3.993.739,6.67,6.67,0,0,1,2.472,1.61A6.642,6.642,0,0,1,38.259,8.82,11.808,11.808,0,0,1,39,12.81c.1,2.265.126,2.945.126,8.683S39.1,27.913,39,30.178a11.893,11.893,0,0,1-.739,3.991,6.718,6.718,0,0,1-1.61,2.47,6.642,6.642,0,0,1-2.472,1.607,11.827,11.827,0,0,1-3.991.742c-2.265.1-2.945.126-8.685.126s-6.423-.024-8.688-.126a11.875,11.875,0,0,1-3.991-.742A6.718,6.718,0,0,1,6.35,36.638a6.718,6.718,0,0,1-1.612-2.472A11.877,11.877,0,0,1,4,30.176c-.1-2.265-.124-2.945-.124-8.688S3.9,15.07,4,12.8A11.9,11.9,0,0,1,4.74,8.812,6.67,6.67,0,0,1,6.35,6.339,6.642,6.642,0,0,1,8.822,4.732a11.874,11.874,0,0,1,3.991-.742c1.983-.091,2.752-.118,6.759-.121Zm13.4,3.569a2.58,2.58,0,1,0,2.58,2.58,2.58,2.58,0,0,0-2.58-2.58M21.5,10.459A11.041,11.041,0,1,0,32.543,21.5,11.04,11.04,0,0,0,21.5,10.459m0,3.873A7.167,7.167,0,1,1,14.334,21.5,7.167,7.167,0,0,1,21.5,14.331" fill="#fff"/>
</svg>
