<svg xmlns="http://www.w3.org/2000/svg" width="42.997" height="42.997" viewBox="0 0 42.997 42.997">
  <path id="linkedin" d="M0,3.08A3.119,3.119,0,0,1,3.158,0H39.839A3.119,3.119,0,0,1,43,3.08V39.917A3.119,3.119,0,0,1,39.839,43H3.158A3.119,3.119,0,0,1,0,39.917ZM13.283,35.994V16.578H6.831V35.994ZM10.059,13.926A3.364,3.364,0,1,0,10.1,7.218a3.363,3.363,0,1,0-.086,6.707ZM23.248,35.994V25.15a4.381,4.381,0,0,1,.215-1.575,3.53,3.53,0,0,1,3.311-2.359c2.335,0,3.268,1.779,3.268,4.391V35.994h6.452V24.857c0-5.966-3.182-8.739-7.428-8.739a6.411,6.411,0,0,0-5.818,3.206v.067H23.2l.043-.067V16.578H16.8c.081,1.822,0,19.416,0,19.416Z" fill="#fff"/>
</svg>
