<svg xmlns="http://www.w3.org/2000/svg" width="28.49" height="28.49" viewBox="0 0 28.49 28.49">
  <path id="telephone" d="M6.507,2.365A1.207,1.207,0,0,0,4.7,2.253L2.858,4.1a3.055,3.055,0,0,0-.8,3.152A31.338,31.338,0,0,0,9.478,19.013a31.338,31.338,0,0,0,11.766,7.421,3.055,3.055,0,0,0,3.152-.8l1.841-1.841a1.207,1.207,0,0,0-.112-1.807l-4.108-3.194a1.211,1.211,0,0,0-1.033-.217l-3.9.974a3.116,3.116,0,0,1-2.95-.817L9.761,14.355a3.116,3.116,0,0,1-.819-2.95l.976-3.9A1.211,1.211,0,0,0,9.7,6.473ZM3.355.91a3.107,3.107,0,0,1,4.651.29L11.2,5.306a3.106,3.106,0,0,1,.561,2.66l-.974,3.9a1.211,1.211,0,0,0,.317,1.145l4.375,4.375a1.211,1.211,0,0,0,1.147.317l3.9-.974a3.116,3.116,0,0,1,2.66.561l4.106,3.194a3.106,3.106,0,0,1,.29,4.649l-1.841,1.841a4.944,4.944,0,0,1-5.123,1.25,33.118,33.118,0,0,1-12.482-7.87A33.119,33.119,0,0,1,.264,7.874,4.95,4.95,0,0,1,1.516,2.751Z" transform="translate(0 0)" fill="#fff"/>
</svg>
